<svg width="227" height="192" viewBox="0 0 227 192" fill="none" xmlns="http://www.w3.org/2000/svg">
<path d="M1.32044 -1.06145e-10L26.7513 1.11151e-06C27.5436 1.14614e-06 27.8077 0.533785 27.8077 1.33446L27.8077 13.3446C27.8077 21.0844 34.41 27.7567 42.0686 27.7567L81.7661 27.7567C103.157 27.7567 109.969 37.0979 112.081 43.5033C112.779 45.6187 114.649 45.6728 115.392 43.5033C117.768 36.5641 123.314 27.7567 145.498 27.7567L184.931 27.7567C192.59 27.7567 199.192 21.0844 199.192 13.3446L199.192 1.33447C199.192 0.533793 199.456 9.51976e-06 200.249 9.55439e-06L225.68 1.0666e-05C226.472 1.07006e-05 227 0.533794 227 1.33447L227 16.0135C227 41.3682 214.588 58.4372 189.499 58.4372L138.103 58.4372C130.181 58.4372 123.843 62.3767 123.843 77.0882L123.843 81.6645C123.843 82.4652 123.314 82.999 122.522 82.999L104.214 82.999C103.422 82.999 102.893 82.4652 102.893 81.6645L102.893 77.0882C102.893 65.756 96.5552 58.4372 88.8965 58.4372L37.2368 58.4371C12.1482 58.4371 -1.10957e-06 41.3682 -1.28495e-09 16.0135L6.40356e-07 1.33446C6.75354e-07 0.533784 0.528168 -3.47375e-08 1.32044 -1.06145e-10Z" fill="#056FF0"/>
<path d="M115.133 149.596L142.028 85.2023C142.545 84.3185 143.577 84.1417 144.352 84.1417L176.205 84.1417C176.979 84.1417 177.754 84.4953 177.238 85.3791L124.413 191.116C124.155 191.646 123.638 192 122.864 192L104.549 192C103.775 192 103.258 191.646 103 191.116L49.8006 85.2032C49.2843 84.3193 49.8006 83.9658 50.8333 83.9658L83.845 84.1415C84.6195 84.1415 85.6521 84.495 85.9103 85.2021L113.244 149.596C113.244 149.919 115.133 149.919 115.133 149.596Z" fill="#056FF0"/>
</svg>
